HIERARCHY
ROOT Hips
{
	OFFSET -0.001795 -0.223333 0.028219
	CHANNELS 6 Xposition Yposition Zposition Zrotation Yrotation Xrotation 
	JOINT LeftUpLeg
	{
		OFFSET 0.069520 -0.091406 -0.006815
		CHANNELS 3 Zrotation Yrotation Xrotation
		JOINT LeftLeg
		{
			OFFSET 0.034277 -0.375199 -0.004496
			CHANNELS 3 Zrotation Yrotation Xrotation
			JOINT LeftFoot
			{
				OFFSET -0.013596 -0.397961 -0.043693
				CHANNELS 3 Zrotation Yrotation Xrotation
				JOINT LeftToe
				{
					OFFSET 0.026358 -0.055791 0.119288
					CHANNELS 3 Zrotation Yrotation Xrotation
					End Site
					{
						OFFSET 0.000000 0.000000 0.000000
					}
				}
			}
		}
	}
	JOINT RightUpLeg
	{
		OFFSET -0.067670 -0.090522 -0.004320
		CHANNELS 3 Zrotation Yrotation Xrotation
		JOINT RightLeg
		{
			OFFSET -0.038290 -0.382569 -0.008850
			CHANNELS 3 Zrotation Yrotation Xrotation
			JOINT RightFoot
			{
				OFFSET 0.015774 -0.398415 -0.042312
				CHANNELS 3 Zrotation Yrotation Xrotation
				JOINT RightToe
				{
					OFFSET -0.025372 -0.048144 0.123348
					CHANNELS 3 Zrotation Yrotation Xrotation
					End Site
					{
						OFFSET 0.000000 0.000000 0.000000
					}
				}
			}
		}
	}
	JOINT Spine
	{
		OFFSET -0.002533 0.108963 -0.026696
		CHANNELS 3 Zrotation Yrotation Xrotation
		JOINT Spine1
		{
			OFFSET 0.005487 0.135180 0.001092
			CHANNELS 3 Zrotation Yrotation Xrotation
			JOINT Spine2
			{
				OFFSET 0.001457 0.052922 0.025425
				CHANNELS 3 Zrotation Yrotation Xrotation
				JOINT Neck
				{
					OFFSET -0.002778 0.213870 -0.042857
					CHANNELS 3 Zrotation Yrotation Xrotation
					JOINT Head
					{
						OFFSET 0.005152 0.064970 0.051349
						CHANNELS 3 Zrotation Yrotation Xrotation
						End Site
						{
							OFFSET 0.000000 0.000000 0.000000
						}
					}
				}
				JOINT LeftShoulder
				{
					OFFSET 0.078845 0.121749 -0.034090
					CHANNELS 3 Zrotation Yrotation Xrotation
					JOINT LeftArm
					{
						OFFSET 0.090977 0.030469 -0.008868
						CHANNELS 3 Zrotation Yrotation Xrotation
						JOINT LeftForeArm
						{
							OFFSET 0.259612 -0.012772 -0.027456
							CHANNELS 3 Zrotation Yrotation Xrotation
							JOINT LeftHand
							{
								OFFSET 0.249234 0.008986 -0.001171
								CHANNELS 3 Zrotation Yrotation Xrotation
								End Site
								{
									OFFSET 0.000000 0.000000 0.000000
								}
							}
						}
					}
				}
				JOINT RightShoulder
				{
					OFFSET -0.081759 0.118833 -0.038615
					CHANNELS 3 Zrotation Yrotation Xrotation
					JOINT RightArm
					{
						OFFSET -0.096012 0.032551 -0.009143
						CHANNELS 3 Zrotation Yrotation Xrotation
						JOINT RightForeArm
						{
							OFFSET -0.253742 -0.013329 -0.021401
							CHANNELS 3 Zrotation Yrotation Xrotation
							JOINT RightHand
							{
								OFFSET -0.255298 0.007772 -0.005559
								CHANNELS 3 Zrotation Yrotation Xrotation
								End Site
								{
									OFFSET 0.000000 0.000000 0.000000
								}
							}
						}
					}
				}
			}
		}
	}
}
MOTION
Frames: 9
Frame Time: 0.05000000
0.000000 1.144960 0.000000 0.531500 10.636036 4.092089 0.642984 0.199697 3.022417 -5.204422 0.307672 -6.795732 -0.595460 4.689205 11.556088 0.000000 0.000000 0.000000 0.594954 0.193251 -1.790131 1.623957 -0.168227 2.379381 -0.515582 -4.119376 10.477469 0.000000 0.000000 0.000000 -4.428310 0.050381 -1.702142 4.676500 -0.376441 -23.487352 -2.397701 -6.727932 28.934399 2.045020 0.550138 -28.440978 0.000000 0.000000 0.000000 -35.384794 1.843390 -4.179680 -48.601549 2.327123 -8.709398 -6.368026 -29.903577 3.323576 0.000000 0.000000 0.000000 29.893751 2.862978 0.305970 52.044468 4.311150 -5.724814 -6.483513 30.834964 0.001600 0.000000 0.000000 0.000000 
0.000023 1.145387 0.000460 0.726710 10.731574 5.538105 0.673380 0.092322 1.556842 -5.412473 0.307153 -6.685691 -0.011557 4.750809 9.399441 0.000000 0.000000 0.000000 -0.634581 0.402278 -4.007138 3.442373 -0.451058 3.729146 -1.859210 -6.048709 6.053244 0.000000 0.000000 0.000000 -5.557446 0.027748 -3.748767 5.442479 -0.568926 -23.426214 -2.632155 -6.835285 28.991782 3.292347 -0.207587 -27.604861 0.000000 0.000000 0.000000 -33.968830 2.171971 -4.211227 -50.405146 2.776051 -9.197757 -4.678883 -31.280446 3.063076 0.000000 0.000000 0.000000 29.908632 1.326897 -0.766115 53.483670 3.907430 -5.974414 -7.740339 31.872206 -0.272937 0.000000 0.000000 0.000000 
0.000228 1.145277 0.000401 0.634137 9.835859 5.875447 1.202273 -0.048684 -0.026730 -6.319898 0.393640 -4.839484 0.561679 5.142571 8.197216 0.000000 0.000000 0.000000 -0.410531 0.512366 -5.142660 3.402164 -0.437457 4.588554 -2.520003 -6.944281 2.297712 0.000000 0.000000 0.000000 -4.522234 0.037791 -5.455706 4.638241 -0.390942 -23.125472 -2.796916 -6.839910 29.817695 2.970296 -0.245692 -26.400767 0.000000 0.000000 0.000000 -33.342956 2.526771 -4.021654 -50.193267 2.770937 -9.333998 -4.410943 -31.362993 3.068533 0.000000 0.000000 0.000000 28.965590 2.483687 -0.174534 53.668798 3.595066 -6.106035 -6.561601 30.514320 -0.043499 0.000000 0.000000 0.000000 
0.000458 1.146607 0.000588 1.051410 10.182844 6.476649 0.801236 -0.041515 -0.158162 -6.627902 0.389005 -5.019005 0.761117 4.921515 6.805284 0.000000 0.000000 0.000000 -0.584559 0.541080 -5.511335 3.331394 -0.428611 4.384307 -2.642465 -7.116392 1.609796 0.000000 0.000000 0.000000 -5.153802 -0.000519 -6.495676 5.045995 -0.473818 -23.502597 -2.967504 -6.979232 30.523447 3.628825 -0.592065 -26.689564 0.000000 0.000000 0.000000 -33.627857 2.368955 -3.965870 -50.285626 3.295261 -9.589447 -5.120254 -32.647488 3.431422 0.000000 0.000000 0.000000 29.353295 2.185516 -0.311201 52.971908 2.806792 -6.448218 -6.380838 31.715942 0.028520 0.000000 0.000000 0.000000 
0.000668 1.147865 0.000921 0.718888 9.750307 6.162043 1.356761 -0.058876 -0.063363 -6.818864 0.410975 -4.810379 0.893366 5.044763 6.621792 0.000000 0.000000 0.000000 -0.222003 0.545405 -5.433204 3.044688 -0.375695 4.971634 -2.291652 -6.202629 1.346381 0.000000 0.000000 0.000000 -4.950023 0.011027 -6.432875 5.500718 -0.611521 -23.198078 -3.031371 -6.592649 30.265807 3.941385 -0.807492 -26.104014 0.000000 0.000000 0.000000 -33.651806 1.700525 -3.526030 -49.467470 3.053724 -9.316926 -5.730299 -32.433727 3.546929 0.000000 0.000000 0.000000 30.061275 2.621886 -0.053375 51.854313 3.091929 -6.191031 -6.503321 31.271670 -0.033678 0.000000 0.000000 0.000000 
0.000942 1.148759 0.001350 0.612232 9.517986 5.966251 1.196749 -0.052628 -0.085921 -6.261502 0.397133 -4.840754 0.677748 4.551642 6.387162 0.000000 0.000000 0.000000 -0.173443 0.580569 -5.798681 3.083837 -0.382676 5.787522 -2.413723 -6.437205 0.994574 0.000000 0.000000 0.000000 -4.977870 0.008887 -6.504312 5.580145 -0.643198 -23.083023 -2.926089 -6.655382 30.338542 3.807422 -0.758364 -26.193945 0.000000 0.000000 0.000000 -33.117195 1.495766 -3.200165 -49.646656 2.876456 -9.321225 -6.232215 -32.501333 3.715685 0.000000 0.000000 0.000000 30.211567 2.670251 -0.119319 51.927007 3.142055 -6.167435 -6.798209 31.127990 -0.116622 0.000000 0.000000 0.000000 
0.001191 1.148667 0.001830 0.476086 9.334963 5.842205 1.247764 -0.034392 0.190273 -6.111147 0.388874 -5.098545 0.713305 4.855530 6.977335 0.000000 0.000000 0.000000 0.084963 0.598865 -5.904289 2.941633 -0.356249 6.293258 -2.284615 -6.181020 1.315741 0.000000 0.000000 0.000000 -4.955449 0.011016 -6.471524 5.802266 -0.707772 -23.034677 -3.162464 -7.035811 30.345924 3.794677 -0.862713 -25.924040 0.000000 0.000000 0.000000 -32.856173 1.538941 -2.947585 -49.965115 2.968158 -9.488467 -6.598929 -32.595076 3.882868 0.000000 0.000000 0.000000 30.183697 2.671884 -0.359220 52.018747 3.131537 -6.103046 -7.031129 31.164333 -0.215557 0.000000 0.000000 0.000000 
0.001412 1.148463 0.002348 0.312258 9.007120 5.747121 1.089230 -0.004195 0.493573 -5.705101 0.370760 -5.570229 0.734811 4.895101 7.031456 0.000000 0.000000 0.000000 0.142679 0.625948 -6.168068 3.056580 -0.374558 6.733693 -2.282102 -6.203051 1.438140 0.000000 0.000000 0.000000 -4.842209 0.019528 -6.423058 5.882997 -0.731275 -23.082522 -3.151813 -7.346636 30.372489 3.743597 -0.971078 -25.461256 0.000000 0.000000 0.000000 -32.635148 1.377031 -2.547822 -50.053521 2.815202 -9.524324 -7.080304 -32.785197 4.093445 0.000000 0.000000 0.000000 29.985626 2.762705 -0.530865 52.161198 2.826689 -6.173313 -6.706467 31.046650 -0.178267 0.000000 0.000000 0.000000 
0.001577 1.148065 0.002846 0.329449 8.855153 5.832340 1.021045 0.018488 0.754810 -5.530150 0.362541 -5.818963 0.719257 4.919285 7.181831 0.000000 0.000000 0.000000 0.179918 0.646506 -6.370975 2.966390 -0.355489 6.840660 -2.439564 -6.612176 1.527386 0.000000 0.000000 0.000000 -4.888128 0.021415 -6.376130 5.988666 -0.763976 -23.031029 -3.254434 -7.468013 30.190715 3.672858 -0.993584 -25.139883 0.000000 0.000000 0.000000 -32.316288 1.421422 -2.450076 -50.312214 2.705808 -9.537615 -7.290334 -32.868132 4.186923 0.000000 0.000000 0.000000 29.823910 2.542969 -0.780161 52.277811 2.446890 -6.290873 -6.272282 30.853345 -0.091270 0.000000 0.000000 0.000000 
